<svg width="190" height="31" viewBox="0 0 190 31" xmlns="http://www.w3.org/2000/svg">
  <path d="M19.125 16.296875c-.072917 1.5833413-.499996 2.9817648-1.28125 4.1953125S15.966153 22.64583 14.554688 23.3125c-1.411466.66667-3.023429 1-4.835938 1-2.989598 0-5.343741-.9739486-7.0625-2.921875-1.718759-1.9479264-2.578125-4.6978989-2.578125-8.25v-1.125c0-2.2291778.388017-4.1796791 1.164063-5.8515625.776045-1.6718834 1.893221-2.9635371 3.351562-3.875C6.052091 1.3775996 7.739574.921875 9.65625.921875c2.76043 0 4.979158.7265552 6.65625 2.1796875s2.630207 3.4557164 2.859375 6.0078125h-5.46875c-.041667-1.3854236-.390622-2.3802053-1.046875-2.984375-.656253-.6041697-1.656243-.90625-3-.90625-1.36459 0-2.36458.5104116-3 1.53125-.63542 1.0208384-.96875 2.6510305-1 4.890625V13.25c0 2.4270955.304684 4.1614531.914062 5.203125.609379 1.0416719 1.658847 1.5625 3.148438 1.5625 1.260423 0 2.223955-.296872 2.890625-.890625.66667-.593753 1.020833-1.5364519 1.0625-2.828125H19.125zm11.378125-4.4375l-1.734375-.125c-1.656259 0-2.718748.5208281-3.1875 1.5625V24h-5.265625V7.09375h4.9375L25.425 9.265625c.885421-1.6562583 2.119783-2.484375 3.703125-2.484375.562503 0 1.052081.0624994 1.46875.1875l-.09375 4.890625zM38.240624 16.625l2.8125-9.53125h5.640625l-6.890625 19.734375-.296875.71875c-.979171 2.1875109-2.708321 3.28125-5.1875 3.28125-.687503 0-1.411454-.1041656-2.171875-.3125V26.75h.6875c.739587 0 1.304686-.1067698 1.695313-.3203125.390627-.2135427.679686-.5963514.867187-1.1484375l.421875-1.125-5.875-17.0625h5.625l2.671875 9.53125zm24.315625-.953125c0 2.6250131-.59114 4.7213463-1.773437 6.2890625-1.182298 1.5677162-2.778636 2.3515625-4.789063 2.3515625-1.552091 0-2.82812-.5677027-3.828125-1.703125V30.5h-5.265625V7.09375h4.921875l.15625 1.5625c1.010422-1.2500062 2.338534-1.875 3.984375-1.875 2.083344 0 3.703119.7682215 4.859375 2.3046875 1.156256 1.536466 1.734375 3.6484241 1.734375 6.3359375v.25zm-5.265625-.328125c0-3.000015-.874991-4.5-2.625-4.5-1.250006 0-2.083331.4479122-2.5 1.34375v6.65625c.458336.9375047 1.302077 1.40625 2.53125 1.40625 1.677092 0 2.541667-1.4479022 2.59375-4.34375v-.5625zm12.51875-12.453125V7.09375h2.78125V10.75h-2.78125v7.734375c0 .6354198.114582 1.0781238.34375 1.328125.229168.2500012.682288.375 1.359375.375.520836 0 .958331-.0312497 1.3125-.09375v3.765625c-.947922.3020848-1.937495.453125-2.96875.453125-1.812509 0-3.151037-.4270791-4.015625-1.28125-.864588-.8541709-1.296875-2.151033-1.296875-3.890625V10.75h-2.15625V7.09375h2.15625V2.890625h5.265625zm2.51875 12.5c0-1.6875084.328121-3.1900976.984375-4.5078125.656253-1.3177149 1.598952-2.3307256 2.828125-3.0390625 1.229172-.7083369 2.671866-1.0625 4.328125-1.0625 2.531262 0 4.526034.7838463 5.984375 2.3515625 1.45834 1.5677162 2.1875 3.7005073 2.1875 6.3984375v.1875c0 2.6354298-.731764 4.7265548-2.195313 6.2734375-1.463549 1.5468827-3.4453 2.3203125-5.945312 2.3203125-2.406262 0-4.338535-.721347-5.796875-2.1640625-1.458341-1.4427155-2.244792-3.3984252-2.359375-5.8671875l-.015625-.890625zm5.265625.328125c0 1.5625078.244789 2.7083297.734375 3.4375.489585.7291703 1.213536 1.09375 2.171875 1.09375 1.875009 0 2.833333-1.4426939 2.875-4.328125v-.53125c0-3.0312652-.968741-4.546875-2.90625-4.546875-1.760426 0-2.713541 1.3072786-2.859375 3.921875l-.015625.953125zM93.706248 1.25l8.390625 20.078125L110.518748 1.25h2.5625V24h-1.921875v-9.90625l.15625-10.15625L102.846873 24h-1.484375l-8.4375-19.984375.15625 10.015625V24h-1.921875V1.25h2.546875zm22.391875 14.046875c0-1.6250081.315101-3.0885352.945312-4.390625.630212-1.3020898 1.520828-2.3151005 2.671875-3.0390625 1.151048-.723962 2.455722-1.0859375 3.914063-1.0859375 2.250011 0 4.07291.7890546 5.46875 2.3671875 1.39584 1.5781329 2.09375 3.6692578 2.09375 6.2734375v.390625c0 1.6354248-.315101 3.1067643-.945313 4.4140625-.630211 1.3072982-1.518223 2.3151006-2.664062 3.0234375-1.145839.7083369-2.453118 1.0625-3.921875 1.0625-2.239595 0-4.059889-.7890546-5.460938-2.3671875-1.401048-1.5781329-2.101562-3.6692578-2.101562-6.2734375v-.375zm1.875.515625c0 2.0208434.523432 3.679681 1.570312 4.9765625 1.046881 1.2968815 2.419263 1.9453125 4.117188 1.9453125 1.687508 0 3.054682-.648431 4.101562-1.9453125 1.046881-1.2968815 1.570313-3.0078019 1.570313-5.1328125v-.359375c0-1.2916731-.239581-2.473953-.71875-3.546875-.479169-1.072922-1.151037-1.9036429-2.015625-2.4921875-.864588-.5885446-1.854161-.8828125-2.96875-.8828125-1.666675 0-3.026036.6536393-4.078125 1.9609375s-1.578125 3.0182186-1.578125 5.1328125v.34375zm17.579375-8.71875l.0625 2.890625c.635419-1.0416719 1.427078-1.8359348 2.375-2.3828125.947921-.5468777 1.994786-.8203125 3.140625-.8203125 1.812509 0 3.161454.5104116 4.046875 1.53125.885421 1.0208384 1.333333 2.5520731 1.34375 4.59375V24h-1.859375V12.890625c-.010417-1.5104242-.330726-2.635413-.960938-3.375-.630211-.739587-1.638014-1.109375-3.023437-1.109375-1.156256 0-2.179683.3619755-3.070313 1.0859375-.890629.723962-1.549477 1.7005147-1.976562 2.9296875V24h-1.859375V7.09375h1.78125zM152.163122 24h-1.875V7.09375h1.875V24zm-2.203125-21.796875c0-.3541684.114582-.6536446.34375-.8984375.229168-.2447929.541665-.3671875.9375-.3671875.395836 0 .710937.1223946.945313.3671875.234376.2447929.351562.5442691.351562.8984375 0 .3541684-.117186.6510405-.351562.890625-.234376.2395845-.549477.359375-.945313.359375-.395835 0-.708332-.1197905-.9375-.359375-.229168-.2395845-.34375-.5364566-.34375-.890625zm8.9075.5625V7.09375h3.5V8.625h-3.5v11.265625c0 .9375047.169269 1.6354144.507812 2.09375.338544.4583356.903642.6875 1.695313.6875.312502 0 .817705-.0520828 1.515625-.15625l.078125 1.53125c-.489586.1770842-1.156246.265625-2 .265625-1.281256 0-2.213539-.3723921-2.796875-1.1171875-.583336-.7447954-.875-1.8411386-.875-3.2890625V8.625h-3.109375V7.09375h3.109375V2.765625h1.875zm4.75125 12.53125c0-1.6250081.315101-3.0885352.945312-4.390625.630212-1.3020898 1.520828-2.3151005 2.671875-3.0390625 1.151048-.723962 2.455722-1.0859375 3.914063-1.0859375 2.250011 0 4.072909.7890546 5.46875 2.3671875 1.39584 1.5781329 2.09375 3.6692578 2.09375 6.2734375v.390625c0 1.6354248-.315101 3.1067643-.945313 4.4140625-.630211 1.3072982-1.518223 2.3151006-2.664062 3.0234375-1.145839.7083369-2.453118 1.0625-3.921875 1.0625-2.239595 0-4.059889-.7890546-5.460938-2.3671875-1.401049-1.5781329-2.101562-3.6692578-2.101562-6.2734375v-.375zm1.875.515625c0 2.0208434.523432 3.679681 1.570312 4.9765625 1.04688 1.2968815 2.419262 1.9453125 4.117188 1.9453125 1.687508 0 3.054682-.648431 4.101562-1.9453125 1.04688-1.2968815 1.570313-3.0078019 1.570313-5.1328125v-.359375c0-1.2916731-.239581-2.473953-.71875-3.546875-.479169-1.072922-1.151038-1.9036429-2.015625-2.4921875-.864588-.5885446-1.854161-.8828125-2.96875-.8828125-1.666675 0-3.026037.6536393-4.078125 1.9609375-1.052089 1.3072982-1.578125 3.0182186-1.578125 5.1328125v.34375zm23.610624-7.125c-.395835-.072917-.817706-.109375-1.265625-.109375-1.166672 0-2.153641.3255176-2.960937.9765625s-1.382811 1.596348-1.726563 2.8359375V24h-1.859375V7.09375h1.828125l.03125 2.6875c.989589-2.00001 2.578114-3 4.765625-3 .520836 0 .93229.0677077 1.234375.203125l-.046875 1.703125z" fill="#FFF" fill-rule="evenodd"/>
</svg>
